<svg xmlns="http://www.w3.org/2000/svg" viewBox="0 0 364.4 228.9">
  <path d="M 106 0 c 10.5 0 20.2 0.8 29.1 3.2 c 8.9 1.6 16.2 4.9 22.7 8.9 s 11.3 9.7 14.6 17 c 3.2 7.3 4.9 16.2 4.9 25.9 c 0 11.3 -2.4 21 -8.1 28.3 c -4.9 7.3 -12.9 13.8 -22.7 18.6 c 13.8 4 24.3 11.3 30.7 21 s 10.5 21.8 10.5 35.6 c 0 11.3 -2.4 21 -6.5 29.1 c -4 8.1 -10.5 15.4 -17.8 20.2 c -7.3 4.9 -16.2 8.9 -25.9 11.3 c -9.7 2.4 -19.4 4 -29.1 4 L 0 223.3 V 0 H 106 z M 99.5 90.6 c 8.9 0 16.2 -2.4 21.8 -6.5 s 8.1 -11.3 8.1 -20.2 c 0 -4.9 -0.8 -9.7 -2.4 -12.9 c -1.6 -3.2 -4 -5.7 -7.3 -8.1 c -3.2 -1.6 -6.5 -3.2 -10.5 -4 c -4 -0.8 -8.1 -0.8 -12.9 -0.8 H 49.4 v 52.6 C 49.4 90.6 99.5 90.6 99.5 90.6 z M 101.9 186.1 c 4.9 0 9.7 -0.8 13.8 -1.6 c 4 -0.8 8.1 -2.4 11.3 -4.9 s 5.7 -4.9 8.1 -8.9 c 1.6 -4 3.2 -8.9 3.2 -14.6 c 0 -11.3 -3.2 -19.4 -9.7 -25.1 c -6.5 -4.9 -15.4 -7.3 -25.9 -7.3 H 49.4 v 62.3 H 101.9 z M 258.1 185.3 c 6.5 6.5 16.2 9.7 29.1 9.7 c 8.9 0 17 -2.4 23.5 -6.5 c 6.5 -4.9 10.5 -9.7 12.1 -14.6 h 39.6 c -6.5 19.4 -16.2 33.2 -29.1 42.1 c -12.9 8.1 -28.3 12.9 -46.9 12.9 c -12.9 0 -24.3 -2.4 -34.8 -6.5 c -10.5 -4 -18.6 -9.7 -25.9 -17.8 c -7.3 -7.3 -12.9 -16.2 -16.2 -26.7 c -4 -10.5 -5.7 -21.8 -5.7 -34.8 c 0 -12.1 1.6 -23.5 5.7 -34 s 9.7 -19.4 17 -27.5 c 7.3 -7.3 16.2 -13.8 25.9 -17.8 c 10.5 -4 21 -6.5 34 -6.5 c 13.8 0 25.9 2.4 36.4 8.1 c 10.5 5.7 18.6 12.1 25.1 21.8 c 6.5 8.9 11.3 19.4 14.6 30.7 c 1.6 11.3 2.4 22.7 1.6 35.6 H 246.8 C 246.8 166.7 251.6 178.8 258.1 185.3 z M 309.1 100.3 c -5.7 -5.7 -14.6 -8.9 -25.1 -8.9 c -7.3 0 -12.9 1.6 -17.8 4 c -4.9 2.4 -8.1 5.7 -11.3 8.9 c -3.2 3.2 -4.9 7.3 -5.7 11.3 c -0.8 4 -1.6 7.3 -1.6 10.5 h 72.8 C 318.8 114.1 314.7 106 309.1 100.3 z M 237.9 15.4 h 90.6 v 21.8 h -90.6 V 15.4 z" fill="#000000"/>
</svg>